<svg aria-hidden="true" style="position: absolute; width: 0; height: 0; overflow: hidden;" version="1.1" xmlns="http://www.w3.org/2000/svg" xmlns:xlink="http://www.w3.org/1999/xlink">
<defs>
<symbol id="icon-cabinet" viewBox="0 0 32 32">
<title>cabinet</title>
<path d="M5 30v-24l4.167-4h12.667l4.166 4v24h-21zM25 22v-15h-19v22h19v-7zM24 14h-17v-6h17v6zM18 10h-5v1h5v-1zM24 21h-17v-6h17v6zM18 17h-5v1h5v-1zM24 28h-17v-6h17v6zM18 24h-5v1h5v-1z"></path>
</symbol>
<symbol id="icon-chevron-small-down" viewBox="0 0 20 20">
<title>chevron-small-down</title>
<path d="M13.418 7.859c0.271-0.268 0.709-0.268 0.978 0s0.272 0.701 0 0.969l-3.908 3.83c-0.27 0.268-0.707 0.268-0.979 0l-3.908-3.83c-0.27-0.267-0.27-0.701 0-0.969s0.709-0.268 0.978 0l3.421 3.141 3.418-3.141z"></path>
</symbol>
<symbol id="icon-chevron-small-left" viewBox="0 0 20 20">
<title>chevron-small-left</title>
<path d="M12.141 13.418c0.268 0.271 0.268 0.709 0 0.978s-0.701 0.272-0.969 0l-3.83-3.908c-0.268-0.27-0.268-0.707 0-0.979l3.83-3.908c0.267-0.27 0.701-0.27 0.969 0s0.268 0.709 0 0.978l-3.141 3.421 3.141 3.418z"></path>
</symbol>
<symbol id="icon-chevron-small-right" viewBox="0 0 20 20">
<title>chevron-small-right</title>
<path d="M11 10l-3.141-3.42c-0.268-0.27-0.268-0.707 0-0.978 0.268-0.27 0.701-0.27 0.969 0l3.83 3.908c0.268 0.271 0.268 0.709 0 0.979l-3.83 3.908c-0.267 0.272-0.701 0.27-0.969 0s-0.268-0.707 0-0.978l3.141-3.419z"></path>
</symbol>
<symbol id="icon-chevron-small-up" viewBox="0 0 20 20">
<title>chevron-small-up</title>
<path d="M6.582 12.141c-0.271 0.268-0.709 0.268-0.978 0s-0.272-0.701 0-0.969l3.908-3.83c0.27-0.268 0.707-0.268 0.979 0l3.908 3.83c0.27 0.267 0.27 0.701 0 0.969s-0.709 0.268-0.979 0l-3.42-3.141-3.418 3.141z"></path>
</symbol>
<symbol id="icon-upload-to-cloud" viewBox="0 0 20 20">
<title>upload-to-cloud</title>
<path d="M15.213 6.639c-0.276 0-0.546 0.025-0.809 0.068-0.656-2.145-2.688-3.707-5.095-3.707-2.939 0-5.32 2.328-5.32 5.199 0 0.256 0.020 0.508 0.057 0.756-0.141-0.017-0.283-0.027-0.429-0.027-1.998 0-3.617 1.582-3.617 3.535s1.619 3.537 3.617 3.537h4.383v-4h-2.5l4.5-5 4.5 5h-2.5v4h3.213c2.643 0 4.787-2.096 4.787-4.68 0-2.586-2.144-4.681-4.787-4.681z"></path>
</symbol>
<symbol id="icon-upload" viewBox="0 0 20 20">
<title>upload</title>
<path d="M8 12h4v-6h3l-5-5-5 5h3v6zM19.338 13.532c-0.21-0.224-1.611-1.723-2.011-2.114-0.265-0.259-0.644-0.418-1.042-0.418h-1.757l3.064 2.994h-3.544c-0.102 0-0.194 0.052-0.24 0.133l-0.816 1.873h-5.984l-0.816-1.873c-0.046-0.081-0.139-0.133-0.24-0.133h-3.544l3.063-2.994h-1.756c-0.397 0-0.776 0.159-1.042 0.418-0.4 0.392-1.801 1.891-2.011 2.114-0.489 0.521-0.758 0.936-0.63 1.449l0.561 3.074c0.128 0.514 0.691 0.936 1.252 0.936h16.312c0.561 0 1.124-0.422 1.252-0.936l0.561-3.074c0.126-0.513-0.142-0.928-0.632-1.449z"></path>
</symbol>
<symbol id="icon-add-user" viewBox="0 0 20 20">
<title>add-user</title>
<path d="M15.989 19.129c0.011-2.129-2.186-3.389-4.317-4.307-2.123-0.914-2.801-1.684-2.801-3.334 0-0.989 0.648-0.667 0.932-2.481 0.12-0.752 0.692-0.012 0.802-1.729 0-0.684-0.313-0.854-0.313-0.854s0.159-1.013 0.221-1.793c0.064-0.817-0.398-2.56-2.301-3.095-0.332-0.341-0.557-0.882 0.467-1.424-2.24-0.104-2.761 1.068-3.954 1.93-1.015 0.756-1.289 1.953-1.24 2.59 0.065 0.78 0.223 1.793 0.223 1.793s-0.314 0.17-0.314 0.854c0.11 1.718 0.684 0.977 0.803 1.729 0.284 1.814 0.933 1.492 0.933 2.481 0 1.65-0.212 2.21-2.336 3.124-2.131 0.917-2.794 2.387-2.783 4.516 0.003 0.637-0.011 0.871-0.011 0.871h16c0 0-0.014-0.234-0.011-0.871zM17 10v-3h-2v3h-3v2h3v3h2v-3h3v-2h-3z"></path>
</symbol>
<symbol id="icon-check" viewBox="0 0 20 20">
<title>check</title>
<path d="M8.294 16.998c-0.435 0-0.847-0.203-1.111-0.553l-3.573-4.721c-0.465-0.613-0.344-1.486 0.27-1.951 0.615-0.467 1.488-0.344 1.953 0.27l2.351 3.104 5.911-9.492c0.407-0.652 1.267-0.852 1.921-0.445s0.854 1.266 0.446 1.92l-6.984 11.21c-0.242 0.391-0.661 0.635-1.12 0.656-0.022 0.002-0.042 0.002-0.064 0.002z"></path>
</symbol>
<symbol id="icon-circle-with-cross" viewBox="0 0 20 20">
<title>circle-with-cross</title>
<path d="M10 1.6c-4.639 0-8.4 3.761-8.4 8.4s3.761 8.4 8.4 8.4 8.4-3.761 8.4-8.4c0-4.639-3.761-8.4-8.4-8.4zM14.789 13.061l-1.729 1.729-3.060-3.061-3.061 3.060-1.729-1.729 3.062-3.060-3.061-3.061 1.729-1.728 3.060 3.060 3.061-3.061 1.729 1.729-3.062 3.061 3.061 3.061z"></path>
</symbol>
<symbol id="icon-circle-with-minus" viewBox="0 0 20 20">
<title>circle-with-minus</title>
<path d="M10 1.6c-4.639 0-8.4 3.761-8.4 8.4s3.761 8.4 8.4 8.4 8.4-3.761 8.4-8.4c0-4.639-3.761-8.4-8.4-8.4zM15 11h-10v-2h10v2z"></path>
</symbol>
<symbol id="icon-circle-with-plus" viewBox="0 0 20 20">
<title>circle-with-plus</title>
<path d="M10 1.6c-4.639 0-8.4 3.761-8.4 8.4s3.761 8.4 8.4 8.4 8.4-3.761 8.4-8.4c0-4.639-3.761-8.4-8.4-8.4zM15 11h-4v4h-2v-4h-4v-2h4v-4h2v4h4v2z"></path>
</symbol>
<symbol id="icon-magnifying-glass" viewBox="0 0 20 20">
<title>magnifying-glass</title>
<path d="M17.545 15.467l-3.779-3.779c0.57-0.935 0.898-2.035 0.898-3.21 0-3.417-2.961-6.377-6.378-6.377s-6.186 2.769-6.186 6.186c0 3.416 2.961 6.377 6.377 6.377 1.137 0 2.2-0.309 3.115-0.844l3.799 3.801c0.372 0.371 0.975 0.371 1.346 0l0.943-0.943c0.371-0.371 0.236-0.84-0.135-1.211zM4.004 8.287c0-2.366 1.917-4.283 4.282-4.283s4.474 2.107 4.474 4.474c0 2.365-1.918 4.283-4.283 4.283s-4.473-2.109-4.473-4.474z"></path>
</symbol>
<symbol id="icon-users" viewBox="0 0 20 20">
<title>users</title>
<path d="M15.989 19.129c0-2.246-2.187-3.389-4.317-4.307-2.123-0.914-2.801-1.684-2.801-3.334 0-0.989 0.648-0.667 0.932-2.481 0.12-0.752 0.692-0.012 0.802-1.729 0-0.684-0.313-0.854-0.313-0.854s0.159-1.013 0.221-1.793c0.064-0.817-0.398-2.56-2.301-3.095-0.332-0.341-0.557-0.882 0.467-1.424-2.24-0.104-2.761 1.068-3.954 1.93-1.015 0.756-1.289 1.953-1.24 2.59 0.065 0.78 0.223 1.793 0.223 1.793s-0.314 0.17-0.314 0.854c0.11 1.718 0.684 0.977 0.803 1.729 0.284 1.814 0.933 1.492 0.933 2.481 0 1.65-0.212 2.21-2.336 3.124-2.131 0.917-2.794 2.387-2.783 4.516 0.003 0.637-0.011 0.871-0.011 0.871h16c0 0-0.011-0.234-0.011-0.871zM18.528 13.365c-1.135-0.457-1.605-1.002-1.605-2.066 0-0.641 0.418-0.432 0.602-1.603 0.077-0.484 0.447-0.008 0.518-1.115 0-0.441-0.202-0.551-0.202-0.551s0.103-0.656 0.143-1.159c0.050-0.627-0.364-2.247-2.268-2.247s-2.318 1.62-2.269 2.247c0.042 0.502 0.144 1.159 0.144 1.159s-0.202 0.109-0.202 0.551c0.071 1.107 0.441 0.631 0.518 1.115 0.184 1.172 0.602 0.963 0.602 1.603 0 1.064-0.438 1.562-1.809 2.152-0.069 0.029-0.12 0.068-0.183 0.102 1.64 0.712 4.226 1.941 4.838 4.447h2.645c0 0 0-1.906 0-2.318 0-1-0.273-1.834-1.472-2.317z"></path>
</symbol>
<symbol id="icon-profile" viewBox="0 0 32 32">
<title>profile</title>
<path d="M27 0h-24c-1.65 0-3 1.35-3 3v26c0 1.65 1.35 3 3 3h24c1.65 0 3-1.35 3-3v-26c0-1.65-1.35-3-3-3zM26 28h-22v-24h22v24zM8 18h14v2h-14zM8 22h14v2h-14zM10 9c0-1.657 1.343-3 3-3s3 1.343 3 3c0 1.657-1.343 3-3 3s-3-1.343-3-3zM15 12h-4c-1.65 0-3 0.9-3 2v2h10v-2c0-1.1-1.35-2-3-2z"></path>
</symbol>
<symbol id="icon-files-empty" viewBox="0 0 32 32">
<title>files-empty</title>
<path d="M28.681 11.159c-0.694-0.947-1.662-2.053-2.724-3.116s-2.169-2.030-3.116-2.724c-1.612-1.182-2.393-1.319-2.841-1.319h-11.5c-1.379 0-2.5 1.122-2.5 2.5v23c0 1.378 1.121 2.5 2.5 2.5h19c1.378 0 2.5-1.122 2.5-2.5v-15.5c0-0.448-0.137-1.23-1.319-2.841zM24.543 9.457c0.959 0.959 1.712 1.825 2.268 2.543h-4.811v-4.811c0.718 0.556 1.584 1.309 2.543 2.268v0zM28 29.5c0 0.271-0.229 0.5-0.5 0.5h-19c-0.271 0-0.5-0.229-0.5-0.5v-23c0-0.271 0.229-0.5 0.5-0.5 0 0 11.499-0 11.5 0v7c0 0.552 0.448 1 1 1h7v15.5z"></path>
<path d="M18.841 1.319c-1.612-1.182-2.393-1.319-2.841-1.319h-11.5c-1.378 0-2.5 1.121-2.5 2.5v23c0 1.207 0.86 2.217 2 2.45v-25.45c0-0.271 0.229-0.5 0.5-0.5h15.215c-0.301-0.248-0.595-0.477-0.873-0.681z"></path>
</symbol>
<symbol id="icon-folder-open" viewBox="0 0 32 32">
<title>folder-open</title>
<path d="M26 30l6-16h-26l-6 16zM4 12l-4 18v-26h9l4 4h13v4z"></path>
</symbol>
<symbol id="icon-folder-plus" viewBox="0 0 32 32">
<title>folder-plus</title>
<path d="M18 8l-4-4h-14v26h32v-22h-14zM22 22h-4v4h-4v-4h-4v-4h4v-4h4v4h4v4z"></path>
</symbol>
<symbol id="icon-folder-minus" viewBox="0 0 32 32">
<title>folder-minus</title>
<path d="M18 8l-4-4h-14v26h32v-22h-14zM22 22h-12v-4h12v4z"></path>
</symbol>
<symbol id="icon-folder-download" viewBox="0 0 32 32">
<title>folder-download</title>
<path d="M18 8l-4-4h-14v26h32v-22h-14zM16 27l-7-7h5v-8h4v8h5l-7 7z"></path>
</symbol>
<symbol id="icon-folder-upload" viewBox="0 0 32 32">
<title>folder-upload</title>
<path d="M18 8l-4-4h-14v26h32v-22h-14zM16 15l7 7h-5v8h-4v-8h-5l7-7z"></path>
</symbol>
<symbol id="icon-user-check" viewBox="0 0 32 32">
<title>user-check</title>
<path d="M30 19l-9 9-3-3-2 2 5 5 11-11z"></path>
<path d="M14 24h10v-3.598c-2.101-1.225-4.885-2.066-8-2.321v-1.649c2.203-1.242 4-4.337 4-7.432 0-4.971 0-9-6-9s-6 4.029-6 9c0 3.096 1.797 6.191 4 7.432v1.649c-6.784 0.555-12 3.888-12 7.918h14v-2z"></path>
</symbol>
<symbol id="icon-cog" viewBox="0 0 32 32">
<title>cog</title>
<path d="M29.181 19.070c-1.679-2.908-0.669-6.634 2.255-8.328l-3.145-5.447c-0.898 0.527-1.943 0.829-3.058 0.829-3.361 0-6.085-2.742-6.085-6.125h-6.289c0.008 1.044-0.252 2.103-0.811 3.070-1.679 2.908-5.411 3.897-8.339 2.211l-3.144 5.447c0.905 0.515 1.689 1.268 2.246 2.234 1.676 2.903 0.672 6.623-2.241 8.319l3.145 5.447c0.895-0.522 1.935-0.82 3.044-0.82 3.35 0 6.067 2.725 6.084 6.092h6.289c-0.003-1.034 0.259-2.080 0.811-3.038 1.676-2.903 5.399-3.894 8.325-2.219l3.145-5.447c-0.899-0.515-1.678-1.266-2.232-2.226zM16 22.479c-3.578 0-6.479-2.901-6.479-6.479s2.901-6.479 6.479-6.479c3.578 0 6.479 2.901 6.479 6.479s-2.901 6.479-6.479 6.479z"></path>
</symbol>
<symbol id="icon-enter" viewBox="0 0 32 32">
<title>enter</title>
<path d="M12 16h-10v-4h10v-4l6 6-6 6zM32 0v26l-12 6v-6h-12v-8h2v6h10v-18l8-4h-18v8h-2v-10z"></path>
</symbol>
<symbol id="icon-exit" viewBox="0 0 32 32">
<title>exit</title>
<path d="M24 20v-4h-10v-4h10v-4l6 6zM22 18v8h-10v6l-12-6v-26h22v10h-2v-8h-16l8 4v18h8v-6z"></path>
</symbol>
</defs>
</svg>
